<svg xmlns="http://www.w3.org/2000/svg" viewBox="0 0 250 94"><defs><style>.cls-1{fill:#376446;}.cls-2,.cls-3,.cls-6{fill:#fff;}.cls-3{font-size:20px;font-family:YuMin-Extrabold-83pv-RKSJ-H, YuMincho;letter-spacing:0.2em;}.cls-4{letter-spacing:0.24em;}.cls-5{letter-spacing:0.24em;}.cls-6{font-size:16px;font-family:YuMin-Demibold-83pv-RKSJ-H, YuMincho;letter-spacing:0.2em;}</style></defs><g id="レイヤー_2" data-name="レイヤー 2"><g id="レイヤー_1-2" data-name="レイヤー 1"><rect class="cls-1" width="250" height="94"/><path class="cls-2" d="M36,68.48a11.59,11.59,0,0,0-2.41-1.92c-.39-.17-.9.27-1.07.86s-.42.5-.42.5a10.09,10.09,0,0,1-2.52-3,12.44,12.44,0,0,1-1.87-3.65s0-.32.46-.44a1.2,1.2,0,0,0,.86-1.2,17.44,17.44,0,0,0-1.09-3.34A1,1,0,0,0,26.53,56a4.35,4.35,0,0,0-1.79,4.27,16.51,16.51,0,0,0,2.63,7,12,12,0,0,0,5,4.48c2.14.94,3.48-1.3,3.62-1.51A1.79,1.79,0,0,0,36,68.48Z"/><text class="cls-3" transform="translate(46.35 71.17)">017<tspan class="cls-4" x="46.8" y="0">3</tspan><tspan class="cls-5" x="63.2" y="-2">-</tspan><tspan x="75.48" y="0">7</tspan><tspan class="cls-4" x="91.08" y="0">4</tspan><tspan class="cls-5" x="107.48" y="-2">-</tspan><tspan x="119.76" y="0">2033</tspan></text><text class="cls-6" transform="translate(30.6 30.88)">お問い合わせはこちら</text></g></g></svg>